<svg width="139" height="16" viewBox="0 0 139 16" fill="none" xmlns="http://www.w3.org/2000/svg">
<path d="M0.264205 15V0.454545H3.33949V6.8679H3.53125L8.76562 0.454545H12.4517L7.05398 6.96733L12.5156 15H8.83665L4.85227 9.01989L3.33949 10.8665V15H0.264205ZM14.0533 15V0.454545H19.7919C20.8904 0.454545 21.8279 0.651041 22.6044 1.04403C23.3857 1.43229 23.9799 1.9839 24.3871 2.69886C24.799 3.40909 25.005 4.24479 25.005 5.20597C25.005 6.17187 24.7966 7.00284 24.38 7.69886C23.9633 8.39015 23.3596 8.92045 22.5689 9.28977C21.7829 9.65909 20.8312 9.84375 19.7138 9.84375H15.8714V7.37216H19.2166C19.8037 7.37216 20.2914 7.29167 20.6797 7.13068C21.0679 6.9697 21.3568 6.72822 21.5462 6.40625C21.7403 6.08428 21.8374 5.68419 21.8374 5.20597C21.8374 4.72301 21.7403 4.31581 21.5462 3.98438C21.3568 3.65294 21.0656 3.40199 20.6726 3.23153C20.2843 3.05634 19.7943 2.96875 19.2024 2.96875H17.1286V15H14.0533ZM21.9084 8.38068L25.5234 15H22.1286L18.5916 8.38068H21.9084ZM40.5447 7.72727C40.5447 9.31345 40.2441 10.6629 39.6428 11.7756C39.0462 12.8883 38.2318 13.7382 37.1996 14.3253C36.1721 14.9077 35.0168 15.1989 33.7337 15.1989C32.4411 15.1989 31.281 14.9053 30.2536 14.3182C29.2261 13.7311 28.4141 12.8812 27.8175 11.7685C27.2209 10.6558 26.9226 9.30871 26.9226 7.72727C26.9226 6.1411 27.2209 4.79167 27.8175 3.67898C28.4141 2.56629 29.2261 1.71875 30.2536 1.13636C31.281 0.549242 32.4411 0.255681 33.7337 0.255681C35.0168 0.255681 36.1721 0.549242 37.1996 1.13636C38.2318 1.71875 39.0462 2.56629 39.6428 3.67898C40.2441 4.79167 40.5447 6.1411 40.5447 7.72727ZM37.4268 7.72727C37.4268 6.69981 37.273 5.83333 36.9652 5.12784C36.6622 4.42235 36.2337 3.88731 35.6797 3.52273C35.1257 3.15814 34.477 2.97585 33.7337 2.97585C32.9903 2.97585 32.3416 3.15814 31.7876 3.52273C31.2337 3.88731 30.8028 4.42235 30.495 5.12784C30.192 5.83333 30.0405 6.69981 30.0405 7.72727C30.0405 8.75473 30.192 9.62121 30.495 10.3267C30.8028 11.0322 31.2337 11.5672 31.7876 11.9318C32.3416 12.2964 32.9903 12.4787 33.7337 12.4787C34.477 12.4787 35.1257 12.2964 35.6797 11.9318C36.2337 11.5672 36.6622 11.0322 36.9652 10.3267C37.273 9.62121 37.4268 8.75473 37.4268 7.72727ZM50.7134 4.63778C50.6566 4.06487 50.4128 3.61979 49.9819 3.30256C49.551 2.98532 48.9663 2.8267 48.2276 2.8267C47.7257 2.8267 47.302 2.89773 46.9563 3.03977C46.6107 3.17708 46.3455 3.36884 46.1609 3.61506C45.9809 3.86127 45.891 4.14062 45.891 4.45312C45.8815 4.71354 45.936 4.94081 46.0543 5.13494C46.1774 5.32907 46.3455 5.49716 46.5586 5.6392C46.7717 5.77651 47.0179 5.89725 47.2972 6.00142C47.5766 6.10085 47.8749 6.18608 48.1921 6.2571L49.4989 6.5696C50.1334 6.71165 50.7158 6.90104 51.2461 7.13778C51.7764 7.37453 52.2357 7.66572 52.6239 8.01136C53.0122 8.35701 53.3129 8.7642 53.5259 9.23295C53.7437 9.7017 53.855 10.2391 53.8597 10.8452C53.855 11.7353 53.6277 12.5071 53.1779 13.1605C52.7328 13.8092 52.0889 14.3134 51.2461 14.6733C50.408 15.0284 49.3971 15.206 48.2134 15.206C47.0392 15.206 46.0165 15.026 45.1452 14.6662C44.2788 14.3063 43.6017 13.7737 43.114 13.0682C42.631 12.358 42.3777 11.4796 42.354 10.4332H45.3299C45.363 10.9209 45.5027 11.3281 45.7489 11.6548C45.9999 11.9768 46.3337 12.2206 46.7504 12.3864C47.1718 12.5473 47.6476 12.6278 48.1779 12.6278C48.6987 12.6278 49.1509 12.5521 49.5344 12.4006C49.9227 12.2491 50.2234 12.0384 50.4364 11.7685C50.6495 11.4986 50.756 11.1884 50.756 10.8381C50.756 10.5114 50.659 10.2367 50.4648 10.0142C50.2754 9.79167 49.9961 9.60227 49.6268 9.44602C49.2622 9.28977 48.8147 9.14773 48.2844 9.01989L46.7006 8.62216C45.4743 8.32386 44.506 7.85748 43.7958 7.22301C43.0856 6.58854 42.7328 5.7339 42.7376 4.65909C42.7328 3.77841 42.9672 3.009 43.4407 2.35085C43.9189 1.69271 44.5747 1.17898 45.408 0.809659C46.2414 0.44034 47.1883 0.255681 48.2489 0.255681C49.3285 0.255681 50.2707 0.44034 51.0756 0.809659C51.8853 1.17898 52.515 1.69271 52.9648 2.35085C53.4147 3.009 53.6467 3.77131 53.6609 4.63778H50.7134ZM63.8189 4.63778C63.7621 4.06487 63.5182 3.61979 63.0874 3.30256C62.6565 2.98532 62.0717 2.8267 61.3331 2.8267C60.8312 2.8267 60.4074 2.89773 60.0618 3.03977C59.7161 3.17708 59.451 3.36884 59.2663 3.61506C59.0864 3.86127 58.9964 4.14062 58.9964 4.45312C58.987 4.71354 59.0414 4.94081 59.1598 5.13494C59.2829 5.32907 59.451 5.49716 59.6641 5.6392C59.8771 5.77651 60.1233 5.89725 60.4027 6.00142C60.6821 6.10085 60.9804 6.18608 61.2976 6.2571L62.6044 6.5696C63.2389 6.71165 63.8213 6.90104 64.3516 7.13778C64.8819 7.37453 65.3411 7.66572 65.7294 8.01136C66.1177 8.35701 66.4183 8.7642 66.6314 9.23295C66.8492 9.7017 66.9605 10.2391 66.9652 10.8452C66.9605 11.7353 66.7332 12.5071 66.2834 13.1605C65.8383 13.8092 65.1944 14.3134 64.3516 14.6733C63.5135 15.0284 62.5026 15.206 61.3189 15.206C60.1446 15.206 59.1219 15.026 58.2507 14.6662C57.3842 14.3063 56.7071 13.7737 56.2195 13.0682C55.7365 12.358 55.4832 11.4796 55.4595 10.4332H58.4354C58.4685 10.9209 58.6082 11.3281 58.8544 11.6548C59.1054 11.9768 59.4392 12.2206 59.8558 12.3864C60.2772 12.5473 60.7531 12.6278 61.2834 12.6278C61.8042 12.6278 62.2564 12.5521 62.6399 12.4006C63.0282 12.2491 63.3288 12.0384 63.5419 11.7685C63.755 11.4986 63.8615 11.1884 63.8615 10.8381C63.8615 10.5114 63.7644 10.2367 63.5703 10.0142C63.3809 9.79167 63.1016 9.60227 62.7322 9.44602C62.3677 9.28977 61.9202 9.14773 61.3899 9.01989L59.8061 8.62216C58.5798 8.32386 57.6115 7.85748 56.9013 7.22301C56.1911 6.58854 55.8383 5.7339 55.843 4.65909C55.8383 3.77841 56.0727 3.009 56.5462 2.35085C57.0244 1.69271 57.6802 1.17898 58.5135 0.809659C59.3468 0.44034 60.2938 0.255681 61.3544 0.255681C62.4339 0.255681 63.3762 0.44034 64.1811 0.809659C64.9908 1.17898 65.6205 1.69271 66.0703 2.35085C66.5201 3.009 66.7521 3.77131 66.7663 4.63778H63.8189ZM81.5533 4.63778C81.4964 4.06487 81.2526 3.61979 80.8217 3.30256C80.3909 2.98532 79.8061 2.8267 79.0675 2.8267C78.5656 2.8267 78.1418 2.89773 77.7962 3.03977C77.4505 3.17708 77.1854 3.36884 77.0007 3.61506C76.8208 3.86127 76.7308 4.14062 76.7308 4.45312C76.7214 4.71354 76.7758 4.94081 76.8942 5.13494C77.0173 5.32907 77.1854 5.49716 77.3984 5.6392C77.6115 5.77651 77.8577 5.89725 78.1371 6.00142C78.4164 6.10085 78.7147 6.18608 79.032 6.2571L80.3388 6.5696C80.9732 6.71165 81.5556 6.90104 82.0859 7.13778C82.6162 7.37453 83.0755 7.66572 83.4638 8.01136C83.852 8.35701 84.1527 8.7642 84.3658 9.23295C84.5836 9.7017 84.6948 10.2391 84.6996 10.8452C84.6948 11.7353 84.4676 12.5071 84.0178 13.1605C83.5727 13.8092 82.9287 14.3134 82.0859 14.6733C81.2479 15.0284 80.237 15.206 79.0533 15.206C77.879 15.206 76.8563 15.026 75.9851 14.6662C75.1186 14.3063 74.4415 13.7737 73.9538 13.0682C73.4709 12.358 73.2176 11.4796 73.1939 10.4332H76.1697C76.2029 10.9209 76.3426 11.3281 76.5888 11.6548C76.8397 11.9768 77.1735 12.2206 77.5902 12.3864C78.0116 12.5473 78.4875 12.6278 79.0178 12.6278C79.5386 12.6278 79.9908 12.5521 80.3743 12.4006C80.7625 12.2491 81.0632 12.0384 81.2763 11.7685C81.4893 11.4986 81.5959 11.1884 81.5959 10.8381C81.5959 10.5114 81.4988 10.2367 81.3047 10.0142C81.1153 9.79167 80.8359 9.60227 80.4666 9.44602C80.102 9.28977 79.6546 9.14773 79.1243 9.01989L77.5405 8.62216C76.3142 8.32386 75.3459 7.85748 74.6357 7.22301C73.9254 6.58854 73.5727 5.7339 73.5774 4.65909C73.5727 3.77841 73.8071 3.009 74.2805 2.35085C74.7588 1.69271 75.4145 1.17898 76.2479 0.809659C77.0812 0.44034 78.0282 0.255681 79.0888 0.255681C80.1683 0.255681 81.1106 0.44034 81.9155 0.809659C82.7251 1.17898 83.3549 1.69271 83.8047 2.35085C84.2545 3.009 84.4865 3.77131 84.5007 4.63778H81.5533ZM86.2141 2.99006V0.454545H98.1602V2.99006H93.707V15H90.6673V2.99006H86.2141ZM112.83 7.72727C112.83 9.31345 112.529 10.6629 111.928 11.7756C111.331 12.8883 110.517 13.7382 109.485 14.3253C108.457 14.9077 107.302 15.1989 106.019 15.1989C104.726 15.1989 103.566 14.9053 102.539 14.3182C101.511 13.7311 100.699 12.8812 100.103 11.7685C99.506 10.6558 99.2077 9.30871 99.2077 7.72727C99.2077 6.1411 99.506 4.79167 100.103 3.67898C100.699 2.56629 101.511 1.71875 102.539 1.13636C103.566 0.549242 104.726 0.255681 106.019 0.255681C107.302 0.255681 108.457 0.549242 109.485 1.13636C110.517 1.71875 111.331 2.56629 111.928 3.67898C112.529 4.79167 112.83 6.1411 112.83 7.72727ZM109.712 7.72727C109.712 6.69981 109.558 5.83333 109.25 5.12784C108.947 4.42235 108.519 3.88731 107.965 3.52273C107.411 3.15814 106.762 2.97585 106.019 2.97585C105.275 2.97585 104.627 3.15814 104.073 3.52273C103.519 3.88731 103.088 4.42235 102.78 5.12784C102.477 5.83333 102.326 6.69981 102.326 7.72727C102.326 8.75473 102.477 9.62121 102.78 10.3267C103.088 11.0322 103.519 11.5672 104.073 11.9318C104.627 12.2964 105.275 12.4787 106.019 12.4787C106.762 12.4787 107.411 12.2964 107.965 11.9318C108.519 11.5672 108.947 11.0322 109.25 10.3267C109.558 9.62121 109.712 8.75473 109.712 7.72727ZM115.108 15V0.454545H120.847C121.945 0.454545 122.883 0.651041 123.659 1.04403C124.44 1.43229 125.035 1.9839 125.442 2.69886C125.854 3.40909 126.06 4.24479 126.06 5.20597C126.06 6.17187 125.851 7.00284 125.435 7.69886C125.018 8.39015 124.414 8.92045 123.624 9.28977C122.838 9.65909 121.886 9.84375 120.768 9.84375H116.926V7.37216H120.271C120.858 7.37216 121.346 7.29167 121.734 7.13068C122.123 6.9697 122.411 6.72822 122.601 6.40625C122.795 6.08428 122.892 5.68419 122.892 5.20597C122.892 4.72301 122.795 4.31581 122.601 3.98438C122.411 3.65294 122.12 3.40199 121.727 3.23153C121.339 3.05634 120.849 2.96875 120.257 2.96875H118.183V15H115.108ZM122.963 8.38068L126.578 15H123.183L119.646 8.38068H122.963ZM128.233 15V0.454545H138.034V2.99006H131.308V6.45597H137.53V8.99148H131.308V12.4645H138.062V15H128.233Z" fill="black"/>
</svg>
